<svg width="20" height="20" viewBox="0 0 20 20" fill="none" xmlns="http://www.w3.org/2000/svg">
<mask id="mask0_377_6616" style="mask-type:alpha" maskUnits="userSpaceOnUse" x="0" y="0" width="20" height="20">
<rect width="20" height="20" fill="#D9D9D9"/>
</mask>
<g mask="url(#mask0_377_6616)">
<path d="M4.16667 18.3315C3.70833 18.3315 3.31597 18.1683 2.98958 17.8419C2.66319 17.5155 2.5 17.1231 2.5 16.6648V4.99813C2.5 4.53979 2.66319 4.14743 2.98958 3.82104C3.31597 3.49466 3.70833 3.33146 4.16667 3.33146H5V1.66479H6.66667V3.33146H13.3333V1.66479H15V3.33146H15.8333C16.2917 3.33146 16.684 3.49466 17.0104 3.82104C17.3368 4.14743 17.5 4.53979 17.5 4.99813V16.6648C17.5 17.1231 17.3368 17.5155 17.0104 17.8419C16.684 18.1683 16.2917 18.3315 15.8333 18.3315H4.16667ZM4.16667 16.6648H15.8333V8.33146H4.16667V16.6648ZM4.16667 6.66479H15.8333V4.99813H4.16667V6.66479Z" fill="#821101"/>
</g>
</svg>
