<svg width="25" height="24" viewBox="0 0 25 24" fill="none" xmlns="http://www.w3.org/2000/svg">
<mask id="mask0_70_2855" style="mask-type:alpha" maskUnits="userSpaceOnUse" x="0" y="0" width="25" height="24">
<rect x="0.5" width="24" height="24" fill="#D9D9D9"/>
</mask>
<g mask="url(#mask0_70_2855)">
<path d="M9.5 18C8.95 18 8.47917 17.8042 8.0875 17.4125C7.69583 17.0208 7.5 16.55 7.5 16V4C7.5 3.45 7.69583 2.97917 8.0875 2.5875C8.47917 2.19583 8.95 2 9.5 2H18.5C19.05 2 19.5208 2.19583 19.9125 2.5875C20.3042 2.97917 20.5 3.45 20.5 4V16C20.5 16.55 20.3042 17.0208 19.9125 17.4125C19.5208 17.8042 19.05 18 18.5 18H9.5ZM9.5 16H18.5V4H9.5V16ZM5.5 22C4.95 22 4.47917 21.8042 4.0875 21.4125C3.69583 21.0208 3.5 20.55 3.5 20V6H5.5V20H16.5V22H5.5Z" fill="white"/>
</g>
</svg>
