<svg width="20" height="20" viewBox="0 0 20 20" fill="none" xmlns="http://www.w3.org/2000/svg">
<mask id="mask0_70_2420" style="mask-type:alpha" maskUnits="userSpaceOnUse" x="0" y="0" width="20" height="20">
<rect width="20" height="20" fill="#D9D9D9"/>
</mask>
<g mask="url(#mask0_70_2420)">
<path d="M9.99447 18.3299C8.52224 18.3299 7.32086 18.0973 6.3903 17.632C5.45974 17.1667 4.99447 16.566 4.99447 15.8299C4.99447 15.4966 5.09516 15.1875 5.29655 14.9028C5.49794 14.6181 5.77919 14.3716 6.1403 14.1632L7.4528 15.3924C7.3278 15.448 7.19238 15.5105 7.04655 15.5799C6.90072 15.6493 6.78613 15.7327 6.7028 15.8299C6.88336 16.0521 7.30002 16.2466 7.9528 16.4132C8.60558 16.5799 9.28613 16.6632 9.99447 16.6632C10.7028 16.6632 11.3868 16.5799 12.0466 16.4132C12.7063 16.2466 13.1264 16.0521 13.307 15.8299C13.2097 15.7188 13.0847 15.6285 12.932 15.5591C12.7792 15.4896 12.6334 15.4271 12.4945 15.3716L13.7861 14.1216C14.175 14.3438 14.4736 14.5973 14.682 14.882C14.8903 15.1667 14.9945 15.4827 14.9945 15.8299C14.9945 16.566 14.5292 17.1667 13.5986 17.632C12.6681 18.0973 11.4667 18.3299 9.99447 18.3299ZM9.99447 15.8299C8.03613 14.3855 6.57433 12.9827 5.60905 11.6216C4.64377 10.2605 4.16113 8.92713 4.16113 7.62157C4.16113 6.63546 4.33822 5.77088 4.69238 5.02782C5.04655 4.28477 5.50141 3.66324 6.05697 3.16324C6.61252 2.66324 7.23752 2.28824 7.93197 2.03824C8.62641 1.78824 9.31391 1.66324 9.99447 1.66324C10.675 1.66324 11.3625 1.78824 12.057 2.03824C12.7514 2.28824 13.3764 2.66324 13.932 3.16324C14.4875 3.66324 14.9424 4.28477 15.2966 5.02782C15.6507 5.77088 15.8278 6.63546 15.8278 7.62157C15.8278 8.92713 15.3452 10.2605 14.3799 11.6216C13.4146 12.9827 11.9528 14.3855 9.99447 15.8299ZM9.99447 9.16324C10.4528 9.16324 10.8452 9.00004 11.1716 8.67365C11.4979 8.34727 11.6611 7.9549 11.6611 7.49657C11.6611 7.03824 11.4979 6.64588 11.1716 6.31949C10.8452 5.9931 10.4528 5.8299 9.99447 5.8299C9.53613 5.8299 9.14377 5.9931 8.81738 6.31949C8.49099 6.64588 8.3278 7.03824 8.3278 7.49657C8.3278 7.9549 8.49099 8.34727 8.81738 8.67365C9.14377 9.00004 9.53613 9.16324 9.99447 9.16324Z" fill="#821101"/>
</g>
</svg>
