<svg width="24" height="24" viewBox="0 0 24 24" fill="none" xmlns="http://www.w3.org/2000/svg">
<g clip-path="url(#clip0_354_1409)">
<path fill-rule="evenodd" clip-rule="evenodd" d="M2.46702 0.753154C2.94925 0.270917 3.60332 0 4.2853 0H14.571C14.7983 0 15.0164 0.0903058 15.1771 0.251052L22.0343 7.1082C22.195 7.26893 22.2853 7.48695 22.2853 7.71429V21.4286C22.2853 22.1105 22.0144 22.7647 21.5322 23.2469C21.05 23.7291 20.3958 24 19.7139 24H4.2853C3.6033 24 2.94925 23.7291 2.46702 23.2469C1.98479 22.7647 1.71387 22.1105 1.71387 21.4286V2.57143C1.71387 1.88945 1.98479 1.23539 2.46702 0.753154ZM10.4152 5.77215C10.5519 6.35213 10.6026 7.12402 10.6016 7.95698C11.7814 9.84207 13.7131 12.1911 15.3265 13.6657C16.0725 13.6156 16.7969 13.6326 17.3665 13.7861C17.7025 13.8767 18.1643 14.061 18.4755 14.4839C18.844 14.985 18.8233 15.5609 18.6459 16.0193C18.4671 16.4818 18.1055 16.8748 17.5621 17.021C17.0923 17.1475 16.6421 17.0448 16.3137 16.9249C15.7712 16.7268 15.1902 16.342 14.6259 15.8888C12.8926 16.1144 10.7385 16.6719 9.1612 17.3054C8.93718 17.9302 8.66574 18.5133 8.32972 18.9314C8.12019 19.1921 7.78683 19.5139 7.30566 19.6315C6.75263 19.7667 6.25803 19.5761 5.90231 19.2778C5.55006 18.9826 5.2528 18.5227 5.29606 17.9313C5.33401 17.412 5.62311 17.0224 5.85973 16.777C6.24106 16.3815 6.80382 16.0356 7.41022 15.7379C7.97869 13.7104 8.38402 10.7591 8.44943 8.53711C8.06792 7.87783 7.75563 7.23293 7.5931 6.6725C7.50287 6.36139 7.42988 5.98167 7.48042 5.60085C7.53688 5.17514 7.76547 4.68969 8.29532 4.42793C8.52683 4.31357 8.83294 4.23626 9.17437 4.30382C9.5131 4.37083 9.76102 4.55563 9.9247 4.73585C10.2154 5.05591 10.3448 5.47311 10.4152 5.77215ZM10.3854 11.3727C11.101 12.3013 11.8885 13.2277 12.6685 14.0504C11.7247 14.2453 10.7515 14.4992 9.84325 14.7886C10.0707 13.7052 10.2553 12.5237 10.3854 11.3727Z" fill="#821101"/>
</g>
<defs>
<clipPath id="clip0_354_1409">
<rect width="24" height="24" fill="white"/>
</clipPath>
</defs>
</svg>
