<svg width="24" height="24" viewBox="0 0 24 24" fill="none" xmlns="http://www.w3.org/2000/svg">
<mask id="mask0_70_2156" style="mask-type:alpha" maskUnits="userSpaceOnUse" x="0" y="0" width="24" height="24">
<rect width="24" height="24" fill="#D9D9D9"/>
</mask>
<g mask="url(#mask0_70_2156)">
<path d="M11.9971 20.9954L10.5471 19.6954C8.86374 18.1787 7.47207 16.8704 6.37207 15.7704C5.27207 14.6704 4.39707 13.6829 3.74707 12.8079C3.09707 11.9329 2.6429 11.1287 2.38457 10.3954C2.12624 9.66205 1.99707 8.91205 1.99707 8.14539C1.99707 6.57872 2.52207 5.27039 3.57207 4.22039C4.62207 3.17039 5.9304 2.64539 7.49707 2.64539C8.36374 2.64539 9.18874 2.82872 9.97207 3.19539C10.7554 3.56205 11.4304 4.07872 11.9971 4.74539C12.5637 4.07872 13.2387 3.56205 14.0221 3.19539C14.8054 2.82872 15.6304 2.64539 16.4971 2.64539C18.0637 2.64539 19.3721 3.17039 20.4221 4.22039C21.4721 5.27039 21.9971 6.57872 21.9971 8.14539C21.9971 8.91205 21.8679 9.66205 21.6096 10.3954C21.3512 11.1287 20.8971 11.9329 20.2471 12.8079C19.5971 13.6829 18.7221 14.6704 17.6221 15.7704C16.5221 16.8704 15.1304 18.1787 13.4471 19.6954L11.9971 20.9954ZM11.9971 18.2954C13.5971 16.8621 14.9137 15.6329 15.9471 14.6079C16.9804 13.5829 17.7971 12.6912 18.3971 11.9329C18.9971 11.1746 19.4137 10.4996 19.6471 9.90789C19.8804 9.31622 19.9971 8.72872 19.9971 8.14539C19.9971 7.14539 19.6637 6.31205 18.9971 5.64539C18.3304 4.97872 17.4971 4.64539 16.4971 4.64539C15.7137 4.64539 14.9887 4.86622 14.3221 5.30789C13.6554 5.74955 13.1971 6.31205 12.9471 6.99539H11.0471C10.7971 6.31205 10.3387 5.74955 9.67207 5.30789C9.0054 4.86622 8.2804 4.64539 7.49707 4.64539C6.49707 4.64539 5.66374 4.97872 4.99707 5.64539C4.3304 6.31205 3.99707 7.14539 3.99707 8.14539C3.99707 8.72872 4.11374 9.31622 4.34707 9.90789C4.5804 10.4996 4.99707 11.1746 5.59707 11.9329C6.19707 12.6912 7.01374 13.5829 8.04707 14.6079C9.0804 15.6329 10.3971 16.8621 11.9971 18.2954Z" fill="#821101"/>
</g>
</svg>
