<svg width="20" height="19" viewBox="0 0 20 19" fill="none" xmlns="http://www.w3.org/2000/svg">
<path d="M9.99707 18.9954L8.54707 17.6954C6.86374 16.1787 5.47207 14.8704 4.37207 13.7704C3.27207 12.6704 2.39707 11.6829 1.74707 10.8079C1.09707 9.93289 0.642904 9.12872 0.38457 8.39539C0.126237 7.66205 -0.00292969 6.91205 -0.00292969 6.14539C-0.00292969 4.57872 0.52207 3.27039 1.57207 2.22039C2.62207 1.17039 3.9304 0.645386 5.49707 0.645386C6.36374 0.645386 7.18874 0.828719 7.97207 1.19539C8.7554 1.56205 9.4304 2.07872 9.99707 2.74539C10.5637 2.07872 11.2387 1.56205 12.0221 1.19539C12.8054 0.828719 13.6304 0.645386 14.4971 0.645386C16.0637 0.645386 17.3721 1.17039 18.4221 2.22039C19.4721 3.27039 19.9971 4.57872 19.9971 6.14539C19.9971 6.91205 19.8679 7.66205 19.6096 8.39539C19.3512 9.12872 18.8971 9.93289 18.2471 10.8079C17.5971 11.6829 16.7221 12.6704 15.6221 13.7704C14.5221 14.8704 13.1304 16.1787 11.4471 17.6954L9.99707 18.9954Z" fill="#821101"/>
</svg>
