<svg width="41" height="40" viewBox="0 0 41 40" fill="none" xmlns="http://www.w3.org/2000/svg">
<rect x="0.5" width="40" height="40" rx="20" fill="#BDBDBD"/>
<path d="M19.8343 19.4414V20.3398C19.8343 21.4076 19.7008 22.3646 19.4339 23.2109C19.167 24.0573 18.7829 24.7767 18.2816 25.3691C17.7803 25.9616 17.178 26.4141 16.4749 26.7266C15.7783 27.0391 14.9971 27.1953 14.1312 27.1953C13.2913 27.1953 12.5198 27.0391 11.8167 26.7266C11.1201 26.4141 10.5146 25.9616 10.0003 25.3691C9.4925 24.7767 9.09862 24.0573 8.81867 23.2109C8.53872 22.3646 8.39875 21.4076 8.39875 20.3398V19.4414C8.39875 18.3737 8.53547 17.4199 8.80891 16.5801C9.08885 15.7337 9.48273 15.0143 9.99055 14.4219C10.4984 13.8229 11.1006 13.3672 11.7972 13.0547C12.5003 12.7422 13.2718 12.5859 14.1116 12.5859C14.9775 12.5859 15.7588 12.7422 16.4554 13.0547C17.1585 13.3672 17.7607 13.8229 18.262 14.4219C18.7698 15.0143 19.1572 15.7337 19.4241 16.5801C19.6976 17.4199 19.8343 18.3737 19.8343 19.4414ZM17.9691 20.3398V19.4219C17.9691 18.5755 17.8812 17.8268 17.7054 17.1758C17.5361 16.5247 17.2855 15.9779 16.9534 15.5352C16.6214 15.0924 16.2145 14.7572 15.7327 14.5293C15.2575 14.3014 14.7171 14.1875 14.1116 14.1875C13.5257 14.1875 12.9951 14.3014 12.5198 14.5293C12.0511 14.7572 11.6474 15.0924 11.3089 15.5352C10.9769 15.9779 10.7197 16.5247 10.5374 17.1758C10.3551 17.8268 10.264 18.5755 10.264 19.4219V20.3398C10.264 21.1927 10.3551 21.9479 10.5374 22.6055C10.7197 23.2565 10.9801 23.8066 11.3187 24.2559C11.6637 24.6986 12.0706 25.0339 12.5394 25.2617C13.0146 25.4896 13.5452 25.6035 14.1312 25.6035C14.7432 25.6035 15.2868 25.4896 15.762 25.2617C16.2373 25.0339 16.6377 24.6986 16.9632 24.2559C17.2952 23.8066 17.5459 23.2565 17.7152 22.6055C17.8844 21.9479 17.9691 21.1927 17.9691 20.3398ZM28.0407 21.4238H24.2419V19.8906H28.0407C28.7764 19.8906 29.3721 19.7734 29.8278 19.5391C30.2835 19.3047 30.6156 18.9792 30.8239 18.5625C31.0387 18.1458 31.1462 17.6706 31.1462 17.1367C31.1462 16.6484 31.0387 16.1895 30.8239 15.7598C30.6156 15.3301 30.2835 14.985 29.8278 14.7246C29.3721 14.4577 28.7764 14.3242 28.0407 14.3242H24.6813V27H22.7966V12.7812H28.0407C29.1149 12.7812 30.0231 12.9668 30.7653 13.3379C31.5075 13.709 32.0707 14.2233 32.4548 14.8809C32.8389 15.5319 33.0309 16.2773 33.0309 17.1172C33.0309 18.0286 32.8389 18.8066 32.4548 19.4512C32.0707 20.0957 31.5075 20.5872 30.7653 20.9258C30.0231 21.2578 29.1149 21.4238 28.0407 21.4238Z" fill="white"/>
</svg>
