<svg width="24" height="24" viewBox="0 0 24 24" fill="none" xmlns="http://www.w3.org/2000/svg">
<mask id="mask0_125_1163" style="mask-type:alpha" maskUnits="userSpaceOnUse" x="0" y="0" width="24" height="24">
<rect width="24" height="24" fill="#D9D9D9"/>
</mask>
<g mask="url(#mask0_125_1163)">
<path d="M12 18C12.35 18 12.6458 17.8792 12.8875 17.6375C13.1292 17.3958 13.25 17.1 13.25 16.75C13.25 16.4 13.1292 16.1042 12.8875 15.8625C12.6458 15.6208 12.35 15.5 12 15.5C11.65 15.5 11.3542 15.6208 11.1125 15.8625C10.8708 16.1042 10.75 16.4 10.75 16.75C10.75 17.1 10.8708 17.3958 11.1125 17.6375C11.3542 17.8792 11.65 18 12 18ZM11.1 14.15H12.95C12.95 13.55 13.0167 13.1083 13.15 12.825C13.2833 12.5417 13.5667 12.1833 14 11.75C14.5833 11.1667 14.9958 10.6792 15.2375 10.2875C15.4792 9.89583 15.6 9.45 15.6 8.95C15.6 8.06667 15.3 7.35417 14.7 6.8125C14.1 6.27083 13.2917 6 12.275 6C11.3583 6 10.5792 6.225 9.9375 6.675C9.29583 7.125 8.85 7.75 8.6 8.55L10.25 9.2C10.3667 8.75 10.6 8.3875 10.95 8.1125C11.3 7.8375 11.7083 7.7 12.175 7.7C12.625 7.7 13 7.82083 13.3 8.0625C13.6 8.30417 13.75 8.625 13.75 9.025C13.75 9.30833 13.6583 9.60833 13.475 9.925C13.2917 10.2417 12.9833 10.5917 12.55 10.975C12 11.4583 11.6208 11.9208 11.4125 12.3625C11.2042 12.8042 11.1 13.4 11.1 14.15ZM5 21C4.45 21 3.97917 20.8042 3.5875 20.4125C3.19583 20.0208 3 19.55 3 19V5C3 4.45 3.19583 3.97917 3.5875 3.5875C3.97917 3.19583 4.45 3 5 3H19C19.55 3 20.0208 3.19583 20.4125 3.5875C20.8042 3.97917 21 4.45 21 5V19C21 19.55 20.8042 20.0208 20.4125 20.4125C20.0208 20.8042 19.55 21 19 21H5ZM5 19H19V5H5V19Z" fill="black" fill-opacity="0.55"/>
</g>
</svg>
