<svg width="20" height="20" viewBox="0 0 20 20" fill="none" xmlns="http://www.w3.org/2000/svg">
<mask id="mask0_70_2148" style="mask-type:alpha" maskUnits="userSpaceOnUse" x="0" y="0" width="20" height="20">
<rect width="20" height="20" fill="#D9D9D9"/>
</mask>
<g mask="url(#mask0_70_2148)">
<path d="M9.95719 15.0028C10.2489 15.0028 10.4954 14.9021 10.6968 14.7007C10.8982 14.4993 10.9989 14.2528 10.9989 13.9611C10.9989 13.6694 10.8982 13.4229 10.6968 13.2215C10.4954 13.0201 10.2489 12.9194 9.95719 12.9194C9.66553 12.9194 9.419 13.0201 9.21761 13.2215C9.01622 13.4229 8.91553 13.6694 8.91553 13.9611C8.91553 14.2528 9.01622 14.4993 9.21761 14.7007C9.419 14.9021 9.66553 15.0028 9.95719 15.0028ZM9.20719 11.7944H10.7489C10.7489 11.3361 10.8009 10.975 10.9051 10.7111C11.0093 10.4472 11.3044 10.0861 11.7905 9.62777C12.1516 9.26666 12.4364 8.92291 12.6447 8.59652C12.853 8.27013 12.9572 7.87777 12.9572 7.41943C12.9572 6.64166 12.6725 6.04443 12.103 5.62777C11.5336 5.2111 10.86 5.00277 10.0822 5.00277C9.29053 5.00277 8.64817 5.2111 8.15511 5.62777C7.66206 6.04443 7.31831 6.54443 7.12386 7.12777L8.49886 7.66943C8.56831 7.41943 8.72456 7.1486 8.96761 6.85693C9.21067 6.56527 9.58219 6.41943 10.0822 6.41943C10.5266 6.41943 10.86 6.54096 11.0822 6.78402C11.3044 7.02707 11.4155 7.29443 11.4155 7.5861C11.4155 7.86388 11.3322 8.12429 11.1655 8.36735C10.9989 8.61041 10.7905 8.8361 10.5405 9.04443C9.92942 9.5861 9.55442 9.99582 9.41553 10.2736C9.27664 10.5514 9.20719 11.0583 9.20719 11.7944ZM9.99886 18.3361C8.84608 18.3361 7.76275 18.1173 6.74886 17.6798C5.73497 17.2423 4.85303 16.6486 4.10303 15.8986C3.35303 15.1486 2.75928 14.2667 2.32178 13.2528C1.88428 12.2389 1.66553 11.1555 1.66553 10.0028C1.66553 8.84999 1.88428 7.76666 2.32178 6.75277C2.75928 5.73888 3.35303 4.85693 4.10303 4.10693C4.85303 3.35693 5.73497 2.76318 6.74886 2.32568C7.76275 1.88818 8.84608 1.66943 9.99886 1.66943C11.1516 1.66943 12.235 1.88818 13.2489 2.32568C14.2627 2.76318 15.1447 3.35693 15.8947 4.10693C16.6447 4.85693 17.2384 5.73888 17.6759 6.75277C18.1134 7.76666 18.3322 8.84999 18.3322 10.0028C18.3322 11.1555 18.1134 12.2389 17.6759 13.2528C17.2384 14.2667 16.6447 15.1486 15.8947 15.8986C15.1447 16.6486 14.2627 17.2423 13.2489 17.6798C12.235 18.1173 11.1516 18.3361 9.99886 18.3361ZM9.99886 16.6694C11.86 16.6694 13.4364 16.0236 14.728 14.7319C16.0197 13.4403 16.6655 11.8639 16.6655 10.0028C16.6655 8.14166 16.0197 6.56527 14.728 5.2736C13.4364 3.98193 11.86 3.3361 9.99886 3.3361C8.13775 3.3361 6.56136 3.98193 5.26969 5.2736C3.97803 6.56527 3.33219 8.14166 3.33219 10.0028C3.33219 11.8639 3.97803 13.4403 5.26969 14.7319C6.56136 16.0236 8.13775 16.6694 9.99886 16.6694Z" fill="black"/>
</g>
</svg>
