<svg width="353" height="34" viewBox="0 0 353 34" fill="none" xmlns="http://www.w3.org/2000/svg">
<g clip-path="url(#clip0_125_1319)">
<path d="M24.5992 5.26922L21.1932 8.63816C19.038 6.35806 16.5251 5.21764 13.6544 5.21691C11.1528 5.21691 9.05792 6.04644 7.36982 7.70549C5.68171 9.36454 4.8373 11.3799 4.83657 13.7515C4.83657 16.2045 5.71295 18.283 7.4657 19.9871C9.21845 21.6912 11.3802 22.5436 13.9508 22.5443C15.6215 22.5443 17.0307 22.1931 18.1783 21.4907C19.326 20.7883 20.2514 19.6882 20.9546 18.1904H13.5956V13.6469H26.3784L26.4133 14.719C26.4125 16.9421 25.8157 19.1244 24.6852 21.0386C23.5332 23.031 22.042 24.5513 20.2115 25.5995C18.381 26.6477 16.2331 27.1717 13.7678 27.1717C11.131 27.1717 8.77862 26.5986 6.71062 25.4524C4.64947 24.3118 2.95049 22.6147 1.80756 20.5548C0.611971 18.4679 -0.0108569 16.1021 0.00215283 13.697C0.00215283 10.3346 1.11351 7.40949 3.33623 4.92164C5.97299 1.96237 9.40477 0.482376 13.6316 0.481649C15.7607 0.465558 17.8708 0.882984 19.8334 1.70851C21.4554 2.40074 23.044 3.58765 24.5992 5.26922Z" fill="#5E5D3E"/>
<path d="M43.7463 7.73919H48.462V26.5343H43.7463V24.548C42.8252 25.4196 41.902 26.0501 40.9766 26.4395C40.0216 26.8308 38.9981 27.0275 37.9661 27.018C35.5386 27.018 33.439 26.0766 31.6673 24.1939C29.8957 22.3111 29.0095 19.9703 29.0088 17.1716C29.0088 14.2661 29.8656 11.8879 31.5791 10.0371C33.2926 8.18628 35.3748 7.25905 37.8256 7.25542C38.9166 7.24823 39.9974 7.46595 41.0006 7.895C42.0315 8.34864 42.9642 8.99889 43.7463 9.80937V7.73919ZM38.7888 11.6093C37.3309 11.6093 36.12 12.1247 35.1561 13.1554C34.1922 14.1862 33.7099 15.5075 33.7092 17.1193C33.7092 18.7435 34.1999 20.0796 35.1812 21.1278C35.6379 21.6334 36.1977 22.0353 36.8228 22.3063C37.4479 22.5773 38.1239 22.7112 38.8051 22.699C40.2862 22.699 41.5145 22.1836 42.49 21.1529C43.4655 20.1221 43.9533 18.7722 43.9533 17.1029C43.9533 15.4671 43.4655 14.1426 42.49 13.1293C41.5145 12.116 40.2807 11.6093 38.7888 11.6093Z" fill="#5E5D3E"/>
<path d="M64.0447 10.3651L61.1257 13.2851C59.9395 12.1098 58.8627 11.5222 57.8951 11.5222C57.3649 11.5222 56.9501 11.6348 56.6508 11.8599C56.5132 11.952 56.4003 12.0765 56.322 12.2224C56.2438 12.3683 56.2025 12.5312 56.2019 12.6967C56.2047 12.958 56.3068 13.2085 56.4874 13.3973C56.677 13.6102 57.1462 13.9007 57.8951 14.269L59.6221 15.133C61.438 16.0323 62.6874 16.9479 63.3702 17.8798C64.053 18.8118 64.3929 19.9057 64.39 21.1616C64.39 22.8323 63.7766 24.2258 62.5498 25.3423C61.3229 26.4587 59.6791 27.0173 57.6184 27.018C54.877 27.018 52.6888 25.947 51.0537 23.8049L53.9563 20.6451C54.5005 21.2831 55.1595 21.8134 55.899 22.2087C56.6421 22.6053 57.3017 22.8039 57.8777 22.8047C58.5002 22.8047 59.001 22.6547 59.3802 22.3547C59.7594 22.0547 59.9497 21.7093 59.9511 21.3185C59.9511 20.5921 59.2658 19.8839 57.8951 19.1938L56.3054 18.3995C53.2655 16.8676 51.7452 14.95 51.7445 12.6466C51.7445 11.1604 52.3176 9.88928 53.4638 8.83312C54.6101 7.77696 56.0755 7.24998 57.8603 7.25216C59.0632 7.24644 60.2505 7.52515 61.3253 8.06555C62.4 8.60596 63.3318 9.39277 64.0447 10.3618V10.3651Z" fill="#5E5D3E"/>
<path d="M68.674 0.812866H73.3896V7.73926H76.1865V11.799H73.3874V26.5343H68.6718V11.799H66.2529V7.73926H68.6718L68.674 0.812866Z" fill="#5E5D3E"/>
<path d="M78.5249 7.73919H82.5682V10.1057C83.0041 9.17306 83.5852 8.46484 84.3116 7.98107C85.0148 7.5041 85.8458 7.25113 86.6955 7.25542C87.3631 7.26959 88.0188 7.435 88.6132 7.73919L87.1444 11.7989C86.5917 11.5222 86.137 11.3842 85.7803 11.3849C85.0539 11.3849 84.4405 11.8338 83.94 12.7316C83.4395 13.6294 83.1889 15.3916 83.1882 18.0182L83.2057 18.9334V26.5343H78.5205L78.5249 7.73919Z" fill="#5E5D3E"/>
<path d="M98.6238 7.25541C100.379 7.25046 102.104 7.70941 103.625 8.58578C105.137 9.43754 106.395 10.6774 107.268 12.1775C108.141 13.6776 108.598 15.3836 108.592 17.1193C108.599 18.8656 108.143 20.5826 107.271 22.0953C106.421 23.6063 105.176 24.8572 103.668 25.7138C102.138 26.5873 100.403 27.0385 98.6412 27.0213C95.9463 27.0213 93.6459 26.0625 91.7399 24.1448C89.8339 22.2272 88.8809 19.898 88.8809 17.1574C88.8809 14.2214 89.9577 11.7742 92.1114 9.8159C94 8.10963 96.1708 7.25614 98.6238 7.25541ZM98.7022 11.6954C97.2371 11.6954 96.0172 12.2039 95.0424 13.2208C94.0676 14.2377 93.5802 15.5419 93.5802 17.1334C93.5802 18.7685 94.0618 20.0931 95.0249 21.1071C95.9881 22.1211 97.2081 22.6296 98.6848 22.6325C100.161 22.6325 101.389 22.12 102.371 21.0951C103.352 20.0702 103.842 18.7515 103.841 17.1389C103.841 15.5263 103.359 14.2163 102.396 13.2088C101.433 12.2013 100.201 11.6969 98.7022 11.6954Z" fill="#5E5D3E"/>
<path d="M142.215 7.73921H143.891C143.901 5.27461 143.941 3.81785 144.01 3.36895C144.138 2.33314 144.573 1.51269 145.318 0.907613C146.062 0.302539 147.114 0 148.471 0C149.45 0 150.555 0.224815 151.788 0.674443V4.27002C151.108 4.07535 150.549 3.97765 150.112 3.97693C149.559 3.97693 149.156 4.09206 148.903 4.32233C148.719 4.49593 148.627 4.85294 148.627 5.39337L148.61 7.74248H151.598V11.7336H148.61V26.5343H143.894V11.7303H142.215V7.73921Z" fill="#5E5D3E"/>
<path d="M153.72 7.73925H155.399C155.41 5.27464 155.451 3.81789 155.52 3.36899C155.646 2.33317 156.082 1.51272 156.827 0.907649C157.572 0.302575 158.622 0.00112849 159.975 0.00330763C160.953 0.00330763 162.059 0.228122 163.292 0.677751V4.27333C162.612 4.07866 162.053 3.98096 161.616 3.98023C161.063 3.98023 160.659 4.09573 160.406 4.32563C160.223 4.49923 160.13 4.85625 160.13 5.39667L160.113 7.74578H163.102V11.7369H160.113V26.5343H155.399V11.7303H153.723L153.72 7.73925Z" fill="#5E5D3E"/>
<path d="M184.464 18.502H169.314C169.532 19.8378 170.116 20.9001 171.067 21.689C172.018 22.4778 173.23 22.8723 174.704 22.8723C175.547 22.884 176.383 22.726 177.164 22.4078C177.944 22.0896 178.653 21.6177 179.247 21.02L183.22 22.8864C182.229 24.2912 181.043 25.3307 179.661 26.0048C178.28 26.6788 176.639 27.0155 174.738 27.0148C171.791 27.0148 169.39 26.085 167.534 24.2255C165.679 22.366 164.752 20.0365 164.754 17.237C164.754 14.3693 165.678 11.9882 167.526 10.0938C169.374 8.19939 171.692 7.2522 174.479 7.2522C177.439 7.2522 179.846 8.19939 181.7 10.0938C183.554 11.9882 184.481 14.4902 184.481 17.5998L184.464 18.502ZM179.747 14.7877C179.444 13.7496 178.794 12.847 177.905 12.2304C176.988 11.5767 175.923 11.2498 174.713 11.2498C173.397 11.2498 172.243 11.6185 171.251 12.3557C170.629 12.8155 170.052 13.6273 169.521 14.7909L179.747 14.7877Z" fill="#5E5D3E"/>
<path d="M187.176 7.73919H191.219V10.1057C191.654 9.17306 192.235 8.46484 192.962 7.98107C193.665 7.5041 194.496 7.25113 195.346 7.25542C196.013 7.26948 196.669 7.43489 197.263 7.73919L195.795 11.7989C195.242 11.5222 194.787 11.3842 194.431 11.3849C193.704 11.3849 193.091 11.8338 192.591 12.7316C192.092 13.6294 191.841 15.3916 191.84 18.0182L191.857 18.9334V26.5343H187.172L187.176 7.73919Z" fill="#5E5D3E"/>
<path opacity="0.8" d="M140.551 12.8537H130.854C130.494 12.8537 130.137 12.7827 129.804 12.6448C129.471 12.5069 129.169 12.3048 128.914 12.05C128.66 11.7953 128.458 11.4928 128.32 11.1599C128.182 10.8271 128.111 10.4704 128.111 10.1101V0.470703L140.551 12.8537Z" fill="#5E5D3E"/>
<g opacity="0.8">
<path d="M122.253 9.38227H126.275C126.367 9.38594 126.458 9.37103 126.544 9.33844C126.63 9.30584 126.708 9.25623 126.775 9.19258C126.841 9.12894 126.894 9.05256 126.93 8.96805C126.966 8.88353 126.984 8.79261 126.984 8.70075C126.984 8.60888 126.966 8.51796 126.93 8.43344C126.894 8.34893 126.841 8.27255 126.775 8.20891C126.708 8.14526 126.63 8.09565 126.544 8.06305C126.458 8.03046 126.367 8.01555 126.275 8.01922H122.253C122.161 8.01555 122.07 8.03046 121.984 8.06305C121.898 8.09565 121.82 8.14526 121.753 8.20891C121.687 8.27255 121.635 8.34893 121.599 8.43344C121.563 8.51796 121.544 8.60888 121.544 8.70075C121.544 8.79261 121.563 8.88353 121.599 8.96805C121.635 9.05256 121.687 9.12894 121.753 9.19258C121.82 9.25623 121.898 9.30584 121.984 9.33844C122.07 9.37103 122.161 9.38594 122.253 9.38227Z" fill="#5E5D3E"/>
<path d="M122.253 12.8427H126.275C126.367 12.8464 126.458 12.8315 126.544 12.7989C126.63 12.7663 126.708 12.7167 126.775 12.653C126.841 12.5894 126.894 12.513 126.93 12.4285C126.966 12.344 126.984 12.2531 126.984 12.1612C126.984 12.0693 126.966 11.9784 126.93 11.8939C126.894 11.8094 126.841 11.733 126.775 11.6694C126.708 11.6057 126.63 11.5561 126.544 11.5235C126.458 11.4909 126.367 11.476 126.275 11.4797H122.253C122.161 11.476 122.07 11.4909 121.984 11.5235C121.898 11.5561 121.82 11.6057 121.753 11.6694C121.687 11.733 121.635 11.8094 121.599 11.8939C121.563 11.9784 121.544 12.0693 121.544 12.1612C121.544 12.2531 121.563 12.344 121.599 12.4285C121.635 12.513 121.687 12.5894 121.753 12.653C121.82 12.7167 121.898 12.7663 121.984 12.7989C122.07 12.8315 122.161 12.8464 122.253 12.8427Z" fill="#5E5D3E"/>
<path d="M121.571 15.6223C121.571 15.8031 121.643 15.9766 121.771 16.1045C121.899 16.2325 122.072 16.3043 122.253 16.3043H131.733C131.914 16.3043 132.087 16.2325 132.215 16.1045C132.343 15.9766 132.415 15.8031 132.415 15.6223C132.415 15.4414 132.343 15.2679 132.215 15.14C132.087 15.012 131.914 14.9402 131.733 14.9402H122.253C122.072 14.9402 121.899 15.012 121.771 15.14C121.643 15.2679 121.571 15.4414 121.571 15.6223Z" fill="#5E5D3E"/>
<path d="M131.736 18.4006H122.256C122.075 18.4006 121.902 18.4725 121.774 18.6004C121.646 18.7283 121.574 18.9018 121.574 19.0827C121.574 19.2636 121.646 19.4371 121.774 19.565C121.902 19.6929 122.075 19.7648 122.256 19.7648H131.736C131.916 19.7648 132.09 19.6929 132.218 19.565C132.346 19.4371 132.418 19.2636 132.418 19.0827C132.418 18.9018 132.346 18.7283 132.218 18.6004C132.09 18.4725 131.916 18.4006 131.736 18.4006Z" fill="#5E5D3E"/>
</g>
<path d="M140.55 12.8526H136.912C136.943 13.1653 136.958 13.4802 136.958 13.7994C136.958 15.724 136.387 17.6054 135.318 19.2056C134.249 20.8059 132.729 22.0531 130.951 22.7896C129.173 23.5261 127.216 23.7188 125.329 23.3434C123.441 22.9679 121.707 22.0411 120.346 20.6802C118.985 19.3193 118.059 17.5854 117.683 15.6978C117.308 13.8102 117.5 11.8536 118.237 10.0755C118.973 8.29744 120.221 6.77767 121.821 5.70842C123.421 4.63917 125.302 4.06846 127.227 4.06846C127.524 4.06846 127.82 4.08153 128.111 4.10768V0.470698C127.819 0.451086 127.523 0.441284 127.227 0.441284C124.756 0.441863 122.334 1.12749 120.23 2.42197C118.126 3.71646 116.421 5.5691 115.307 7.77398C114.192 9.97887 113.711 12.4496 113.916 14.9117C114.121 17.3738 115.005 19.7307 116.47 21.7206L116.634 21.9472L113.139 25.4992L113.097 25.4589C113.002 25.3641 112.874 25.3108 112.74 25.3108C112.605 25.3108 112.477 25.3641 112.382 25.4589L107.272 30.6376C107.177 30.7326 107.124 30.861 107.124 30.995C107.124 31.1289 107.177 31.2574 107.272 31.3524L109.811 33.8584C109.906 33.9531 110.035 34.0063 110.169 34.0063C110.303 34.0063 110.431 33.9531 110.526 33.8584L115.636 28.6796C115.731 28.5848 115.784 28.4563 115.784 28.3223C115.784 28.1882 115.731 28.0597 115.636 27.9649L115.594 27.9235L119.08 24.3791L119.267 24.5371C121.255 26.0113 123.614 26.9041 126.08 27.1159C128.546 27.3277 131.022 26.8501 133.233 25.7365C135.443 24.6229 137.301 22.917 138.598 20.8092C139.896 18.7014 140.582 16.2746 140.581 13.7994C140.581 13.4823 140.573 13.1664 140.55 12.8526Z" fill="#5E5D3E"/>
</g>
<defs>
<clipPath id="clip0_125_1319">
<rect width="197.264" height="34" fill="white"/>
</clipPath>
</defs>
</svg>
