<svg width="24" height="24" viewBox="0 0 24 24" fill="none" xmlns="http://www.w3.org/2000/svg">
<mask id="mask0_125_1152" style="mask-type:alpha" maskUnits="userSpaceOnUse" x="0" y="0" width="24" height="24">
<rect width="24" height="24" fill="#D9D9D9"/>
</mask>
<g mask="url(#mask0_125_1152)">
<path d="M3.9998 20V7.1L2.0498 2.85L3.8498 2L6.1998 7.05H17.7998L20.1498 2L21.9498 2.85L19.9998 7.1V20H3.9998ZM9.9998 13H13.9998C14.2831 13 14.5206 12.9042 14.7123 12.7125C14.904 12.5208 14.9998 12.2833 14.9998 12C14.9998 11.7167 14.904 11.4792 14.7123 11.2875C14.5206 11.0958 14.2831 11 13.9998 11H9.9998C9.71647 11 9.47897 11.0958 9.2873 11.2875C9.09564 11.4792 8.9998 11.7167 8.9998 12C8.9998 12.2833 9.09564 12.5208 9.2873 12.7125C9.47897 12.9042 9.71647 13 9.9998 13ZM5.9998 18H17.9998V9.05H5.9998V18Z" fill="black" fill-opacity="0.55"/>
</g>
</svg>
