<svg width="24" height="24" viewBox="0 0 24 24" fill="none" xmlns="http://www.w3.org/2000/svg">
<path d="M15 8C15 9.65772 13.6577 11 12 11C10.3423 11 9 9.65772 9 8C9 6.34228 10.3423 5 12 5C13.6577 5 15 6.34228 15 8ZM5 18C5 17.7023 5.1412 17.3675 5.55276 16.9877C5.97111 16.6015 6.59853 16.2401 7.37062 15.9308C8.91642 15.3115 10.79 15 12 15C13.21 15 15.0836 15.3115 16.6294 15.9308C17.4015 16.2401 18.0289 16.6015 18.4472 16.9877C18.8588 17.3675 19 17.7023 19 18V19H5V18Z" stroke="black" stroke-width="2"/>
</svg>
