<svg width="20" height="20" viewBox="0 0 20 20" fill="none" xmlns="http://www.w3.org/2000/svg">
<mask id="mask0_70_2220" style="mask-type:alpha" maskUnits="userSpaceOnUse" x="0" y="0" width="20" height="20">
<rect width="20" height="20" fill="#D9D9D9"/>
</mask>
<g mask="url(#mask0_70_2220)">
<path d="M9.95719 15.0027C10.2489 15.0027 10.4954 14.902 10.6968 14.7007C10.8982 14.4993 10.9989 14.2527 10.9989 13.9611C10.9989 13.6694 10.8982 13.4229 10.6968 13.2215C10.4954 13.0201 10.2489 12.9194 9.95719 12.9194C9.66553 12.9194 9.419 13.0201 9.21761 13.2215C9.01622 13.4229 8.91553 13.6694 8.91553 13.9611C8.91553 14.2527 9.01622 14.4993 9.21761 14.7007C9.419 14.902 9.66553 15.0027 9.95719 15.0027ZM9.20719 11.7944H10.7489C10.7489 11.3361 10.8009 10.975 10.9051 10.7111C11.0093 10.4472 11.3044 10.0861 11.7905 9.62774C12.1516 9.26663 12.4364 8.92287 12.6447 8.59649C12.853 8.2701 12.9572 7.87774 12.9572 7.4194C12.9572 6.64163 12.6725 6.0444 12.103 5.62774C11.5336 5.21107 10.86 5.00274 10.0822 5.00274C9.29053 5.00274 8.64817 5.21107 8.15511 5.62774C7.66206 6.0444 7.31831 6.5444 7.12386 7.12774L8.49886 7.6694C8.56831 7.4194 8.72456 7.14857 8.96761 6.8569C9.21067 6.56524 9.58219 6.4194 10.0822 6.4194C10.5266 6.4194 10.86 6.54093 11.0822 6.78399C11.3044 7.02704 11.4155 7.2944 11.4155 7.58607C11.4155 7.86385 11.3322 8.12426 11.1655 8.36732C10.9989 8.61038 10.7905 8.83607 10.5405 9.0444C9.92942 9.58607 9.55442 9.99579 9.41553 10.2736C9.27664 10.5513 9.20719 11.0583 9.20719 11.7944ZM9.99886 18.3361C8.84608 18.3361 7.76275 18.1173 6.74886 17.6798C5.73497 17.2423 4.85303 16.6486 4.10303 15.8986C3.35303 15.1486 2.75928 14.2666 2.32178 13.2527C1.88428 12.2388 1.66553 11.1555 1.66553 10.0027C1.66553 8.84996 1.88428 7.76662 2.32178 6.75274C2.75928 5.73885 3.35303 4.8569 4.10303 4.1069C4.85303 3.3569 5.73497 2.76315 6.74886 2.32565C7.76275 1.88815 8.84608 1.6694 9.99886 1.6694C11.1516 1.6694 12.235 1.88815 13.2489 2.32565C14.2627 2.76315 15.1447 3.3569 15.8947 4.1069C16.6447 4.8569 17.2384 5.73885 17.6759 6.75274C18.1134 7.76662 18.3322 8.84996 18.3322 10.0027C18.3322 11.1555 18.1134 12.2388 17.6759 13.2527C17.2384 14.2666 16.6447 15.1486 15.8947 15.8986C15.1447 16.6486 14.2627 17.2423 13.2489 17.6798C12.235 18.1173 11.1516 18.3361 9.99886 18.3361ZM9.99886 16.6694C11.86 16.6694 13.4364 16.0236 14.728 14.7319C16.0197 13.4402 16.6655 11.8638 16.6655 10.0027C16.6655 8.14162 16.0197 6.56524 14.728 5.27357C13.4364 3.9819 11.86 3.33607 9.99886 3.33607C8.13775 3.33607 6.56136 3.9819 5.26969 5.27357C3.97803 6.56524 3.33219 8.14162 3.33219 10.0027C3.33219 11.8638 3.97803 13.4402 5.26969 14.7319C6.56136 16.0236 8.13775 16.6694 9.99886 16.6694Z" fill="black"/>
</g>
</svg>
