<svg width="24" height="24" viewBox="0 0 24 24" fill="none" xmlns="http://www.w3.org/2000/svg">
<mask id="mask0_195_6134" style="mask-type:alpha" maskUnits="userSpaceOnUse" x="0" y="0" width="24" height="24">
<rect width="24" height="24" fill="#D9D9D9"/>
</mask>
<g mask="url(#mask0_195_6134)">
<path d="M3 15C2.45 15 1.97917 14.8042 1.5875 14.4125C1.19583 14.0208 1 13.55 1 13V4C1 3.45 1.19583 2.97917 1.5875 2.5875C1.97917 2.19583 2.45 2 3 2H21C21.55 2 22.0208 2.19583 22.4125 2.5875C22.8042 2.97917 23 3.45 23 4V13C23 13.55 22.8042 14.0208 22.4125 14.4125C22.0208 14.8042 21.55 15 21 15H3ZM3 4V13H21V4H3ZM3.075 18.5L3 17L20.975 16.05L21.05 17.55L3.075 18.5ZM3 20.975V19.475H21V20.975H3ZM10.25 11.5C11.4833 11.5 12.6708 11.2833 13.8125 10.85C14.9542 10.4167 15.95 9.75 16.8 8.85C16.9 9.55 17.2667 10.0833 17.9 10.45C18.5333 10.8167 19.2333 11 20 11V6C19.2333 6 18.5333 6.1875 17.9 6.5625C17.2667 6.9375 16.9 7.48333 16.8 8.2C15.9167 7.33333 14.9125 6.66667 13.7875 6.2C12.6625 5.73333 11.4833 5.5 10.25 5.5C8.93333 5.5 7.66667 5.72917 6.45 6.1875C5.23333 6.64583 4.25 7.41667 3.5 8.5C4.25 9.58333 5.23333 10.3542 6.45 10.8125C7.66667 11.2708 8.93333 11.5 10.25 11.5Z" fill="#821101"/>
</g>
</svg>
